# xmcd
#
# Track frame offsets: 
#        150
#        17322
#        34368
#        48210
#        66953
#        85607
#        93561
#        109483
#        129760
#        144292
#        159754
#        182757
#        202876
#        214141
#        227566
#        244040
#        258706
#        273784
#        289222
#        306690
#        327409
#        341367
#
# Disc length: 4647 seconds
#
# Revision: 1
# Processed by: cddbd v1.5.2PL0 Copyright (c) Steve Scherf et al.
# Submitted via: ExactAudioCopy v0.95b4
#
DISCID=36122516
DTITLE=Jon Spencer Blues Explosion - Xtra Acme
DYEAR=1999
DGENRE=Rock
TTITLE0=Wait a Minute
TTITLE1=Get Down Lover
TTITLE2=Confused (Zebra Ranch)
TTITLE3=Magical Colors (31 Flavors)
TTITLE4=Not Yet
TTITLE5=Get Old
TTITLE6=Bacon
TTITLE7=Blue Green Olga (Benzel-Waters)
TTITLE8=Heavy (Stimulated Dummies)
TTITLE9=Lap Dance
TTITLE10=Leave Me Alone So I Can Rock Again
TTITLE11=Soul Trance
TTITLE12=Electricity
TTITLE13=New Year
TTITLE14=Lovin' Machine (Automator)
TTITLE15=Chowder
TTITLE16=T.A.T.B (Demo)
TTITLE17=Hell (Zebra Ranch)
TTITLE18=Torture (Waters)
TTITLE19=Blues Explosion Attack (Dub Narcotic)
TTITLE20=Calvin (Bagel)
TTITLE21=Shhh
EXTD=
EXTT0=
EXTT1=
EXTT2=
EXTT3=
EXTT4=
EXTT5=
EXTT6=
EXTT7=
EXTT8=
EXTT9=
EXTT10=
EXTT11=
EXTT12=
EXTT13=
EXTT14=
EXTT15=
EXTT16=
EXTT17=
EXTT18=
EXTT19=
EXTT20=
EXTT21=
PLAYORDER=
